<svg id="Calque_1" data-name="Calque 1" xmlns="http://www.w3.org/2000/svg" viewBox="0 0 100 100"><defs><style>.cls-1{fill:#1d1d1b;stroke:#010101;stroke-width:0.3px;}.cls-1,.cls-4{stroke-miterlimit:10;}.cls-2{fill:none;}.cls-2,.cls-3{stroke:#f9f9f9;stroke-linecap:round;stroke-linejoin:round;stroke-width:1.5px;}.cls-3,.cls-4{fill:#f9f9f9;}.cls-4{stroke:#1d1d1b;}</style></defs><rect class="cls-1" y="-0.77" width="100.79" height="100.79"/><polygon class="cls-2" points="50 88.99 6.36 30.2 32.83 30.2 50 88.99"/><polygon class="cls-3" points="93.65 30.18 93.64 30.2 6.36 30.2 6.35 30.18 25.33 11.2 74.67 11.2 93.65 30.18"/><polygon class="cls-2" points="93.64 30.2 50.01 88.97 50 88.98 50 88.99 50 88.97 67.17 30.2 93.64 30.2"/><polygon class="cls-2" points="50 30.2 50 88.99 19 30.2 50 30.2"/><polygon class="cls-2" points="81 30.2 50.01 88.97 50 88.98 50 88.97 50 30.2 81 30.2"/><polygon class="cls-3" points="67.17 30.2 50 88.97 50 88.99 32.83 30.2 67.17 30.2"/><polygon class="cls-4" points="32.83 30.2 50 11.01 67.17 30.2 32.83 30.2"/></svg>