<svg id="Calque_1" data-name="Calque 1" xmlns="http://www.w3.org/2000/svg" viewBox="0 0 100 100"><defs><style>.cls-1{fill:#1d1d1b;stroke:#010101;}.cls-1,.cls-2,.cls-3,.cls-4,.cls-5{stroke-miterlimit:10;}.cls-1,.cls-2,.cls-3{stroke-width:0.3px;}.cls-2{fill:none;}.cls-2,.cls-3{stroke:#f9f9f9;}.cls-3,.cls-4,.cls-5{fill:#f9f9f9;}.cls-4,.cls-5{stroke:#1d1d1b;}.cls-4{stroke-width:0.1px;}.cls-5{stroke-width:0.2px;}</style></defs><rect class="cls-1" y="-0.77" width="100.79" height="100.79"/><polygon class="cls-2" points="50 83.08 12.31 32.31 35.17 32.31 50 83.08"/><polygon class="cls-3" points="87.7 32.29 87.69 32.31 12.31 32.31 12.3 32.29 28.69 15.9 71.31 15.9 87.7 32.29"/><polygon class="cls-2" points="87.69 32.31 50.01 83.06 50 83.08 50 83.08 50 83.07 64.83 32.31 87.69 32.31"/><polygon class="cls-2" points="50 32.31 50 83.08 23.23 32.31 50 32.31"/><polygon class="cls-2" points="76.77 32.31 50.01 83.06 50 83.08 50 83.07 50 32.31 76.77 32.31"/><polygon class="cls-4" points="64.83 32.31 50 83.07 50 83.08 35.17 32.31 64.83 32.31"/><polygon class="cls-5" points="35.17 32.31 50 15.74 64.83 32.31 35.17 32.31"/></svg>