<svg id="Calque_1" data-name="Calque 1" xmlns="http://www.w3.org/2000/svg" viewBox="0 0 100 100"><defs><style>.cls-1{stroke:#010101;stroke-width:0.3px;}.cls-1,.cls-4{stroke-miterlimit:10;}.cls-2{fill:none;}.cls-2,.cls-3{stroke:#f9f9f9;stroke-linecap:round;stroke-linejoin:round;stroke-width:1.5px;}.cls-3,.cls-4{fill:#f9f9f9;}.cls-4{stroke:#1d1d1b;}</style></defs><rect class="cls-1" y="-0.77" width="100.79" height="100.79"/><polygon class="cls-2" points="50 86 9.7 31.71 34.15 31.71 50 86"/><polygon class="cls-3" points="90.31 31.69 90.3 31.71 9.7 31.71 9.69 31.69 27.21 14.17 72.78 14.17 90.31 31.69"/><polygon class="cls-2" points="90.3 31.71 50.01 85.98 50 86 50 86 50 85.99 65.85 31.71 90.3 31.71"/><polygon class="cls-2" points="50 31.71 50 86 21.38 31.71 50 31.71"/><polygon class="cls-2" points="78.63 31.71 50.01 85.98 50 86 50 85.99 50 31.71 78.63 31.71"/><polygon class="cls-3" points="65.85 31.71 50 85.99 50 86 34.15 31.71 65.85 31.71"/><polygon class="cls-4" points="34.15 31.71 50 14 65.85 31.71 34.15 31.71"/></svg>