<svg id="Calque_1" data-name="Calque 1" xmlns="http://www.w3.org/2000/svg" viewBox="0 0 43.99 50.05"><defs><style>.cls-1{fill:#1da1f2;}</style></defs><path class="cls-1" d="M48.74,17.42V53a2.06,2.06,0,0,1-2.9,1.87L28.56,47,10.89,54.84A2,2,0,0,1,8,53V17.42A1.12,1.12,0,0,1,9.13,16.3H23.21V40A10.64,10.64,0,0,0,33.85,29.37V16.3H47.62A1.12,1.12,0,0,1,48.74,17.42Z" transform="translate(-8.01 -4.98)"/><path class="cls-1" d="M8.21,0H44a0,0,0,0,1,0,0V0a8.21,8.21,0,0,1-8.21,8.21H0a0,0,0,0,1,0,0v0A8.21,8.21,0,0,1,8.21,0Z"/></svg>