<svg id="Calque_1" data-name="Calque 1" xmlns="http://www.w3.org/2000/svg" viewBox="0 0 500 500"><defs><style>.cls-1,.cls-5{fill:#1d1d1b;}.cls-1,.cls-2{stroke:#1d1d1b;}.cls-1,.cls-2,.cls-3,.cls-4{stroke-miterlimit:10;}.cls-1,.cls-2,.cls-4{stroke-width:2px;}.cls-2,.cls-4{fill:#fff;}.cls-3{fill:none;}.cls-3,.cls-4{stroke:#191918;}</style></defs><path class="cls-1" d="M253.34,138.75c1.31-7.82,2.61-15.65,5.22-22.17.11-.22.21-.45.32-.68-2.11-.11-4.22-.18-6.36-.18A116.32,116.32,0,0,0,164.3,156a98.65,98.65,0,1,0,27.18,175.88,116.34,116.34,0,0,0,13.81,7.27,48.43,48.43,0,0,1,2.41-7.43A579.9,579.9,0,0,0,253.34,138.75Z"/><path class="cls-2" d="M359.91,131.24c-3.06,0-6.08.14-9.05.4a116.3,116.3,0,0,0-69.47-27.78c-.11.23-.21.46-.32.68-2.6,6.52-3.91,14.35-5.21,22.17a579.9,579.9,0,0,1-45.64,193,48.47,48.47,0,0,0-2.42,7.43,116.92,116.92,0,0,0,91.11,1.43,102.92,102.92,0,1,0,41-197.33Z"/><path class="cls-3" d="M232.48,77.41l22.42,13"/><path class="cls-3" d="M266.58,54.63l.26,38.6"/><path class="cls-3" d="M279.8,96A110.65,110.65,0,0,0,304.05,68.8"/><circle class="cls-4" cx="271.57" cy="255.26" r="114.49"/><path class="cls-5" d="M206.59,445.32a17.7,17.7,0,0,1-9.24-2.42,17,17,0,0,1-6.46-6.92,25.87,25.87,0,0,1,0-21.59,17,17,0,0,1,6.46-6.92,18.83,18.83,0,0,1,18.47,0,17,17,0,0,1,6.42,6.92,25.87,25.87,0,0,1,0,21.59,17,17,0,0,1-6.42,6.92A17.69,17.69,0,0,1,206.59,445.32Zm0-6.28a10.25,10.25,0,0,0,5.66-1.59,10.49,10.49,0,0,0,3.89-4.68,21.08,21.08,0,0,0,0-15.16,10.52,10.52,0,0,0-3.89-4.69,10.86,10.86,0,0,0-11.35,0,10.69,10.69,0,0,0-3.91,4.69,20.86,20.86,0,0,0,0,15.13,10.77,10.77,0,0,0,3.91,4.68A10.31,10.31,0,0,0,206.59,439Z"/><path class="cls-5" d="M247.73,445.32a17.7,17.7,0,0,1-9.24-2.42A16.94,16.94,0,0,1,232,436a25.77,25.77,0,0,1,0-21.59,16.94,16.94,0,0,1,6.45-6.92,18.83,18.83,0,0,1,18.47,0,16.94,16.94,0,0,1,6.42,6.92,25.87,25.87,0,0,1,0,21.59A16.94,16.94,0,0,1,257,442.9,17.69,17.69,0,0,1,247.73,445.32Zm0-6.28a10.31,10.31,0,0,0,5.67-1.59,10.62,10.62,0,0,0,3.89-4.68,21.22,21.22,0,0,0,0-15.16,10.65,10.65,0,0,0-3.89-4.69,10.88,10.88,0,0,0-11.36,0,10.69,10.69,0,0,0-3.91,4.69,21,21,0,0,0,0,15.13,10.77,10.77,0,0,0,3.91,4.68A10.33,10.33,0,0,0,247.73,439Z"/><path class="cls-5" d="M272.07,444.77V405.6h14.72a15.69,15.69,0,0,1,7.55,1.66A11.39,11.39,0,0,1,299,411.8a14.68,14.68,0,0,1,0,13.35,11.3,11.3,0,0,1-4.74,4.54,16,16,0,0,1-7.58,1.65h-10v-5.81h9.23a9.06,9.06,0,0,0,4.29-.91,5.94,5.94,0,0,0,2.51-2.5,8.46,8.46,0,0,0,0-7.31,5.86,5.86,0,0,0-2.53-2.44,9.24,9.24,0,0,0-4.3-.88h-6.78v33.28Z"/><path class="cls-5" d="M320.42,445.37a20.14,20.14,0,0,1-8-1.45,11.9,11.9,0,0,1-5.28-4.24,12.48,12.48,0,0,1-2-6.71H312a6.56,6.56,0,0,0,1.25,3.56,6.68,6.68,0,0,0,2.94,2.15,11.26,11.26,0,0,0,4.17.73,11.15,11.15,0,0,0,4.12-.7,6.43,6.43,0,0,0,2.78-2,4.65,4.65,0,0,0,1-3,3.7,3.7,0,0,0-.85-2.5,6.66,6.66,0,0,0-2.45-1.71,22.49,22.49,0,0,0-3.82-1.26l-4.39-1.11a17.55,17.55,0,0,1-7.89-3.83,8.8,8.8,0,0,1-2.76-6.74,10.18,10.18,0,0,1,1.86-6.07,12.19,12.19,0,0,1,5.1-4.05,18,18,0,0,1,7.37-1.44,17.37,17.37,0,0,1,7.39,1.46,11.84,11.84,0,0,1,4.94,4.06,10.89,10.89,0,0,1,1.87,6h-6.76a5.56,5.56,0,0,0-2.27-4.13,8.7,8.7,0,0,0-5.25-1.47,9.84,9.84,0,0,0-3.8.68,5.89,5.89,0,0,0-2.49,1.86,4.33,4.33,0,0,0-.89,2.69,3.68,3.68,0,0,0,1,2.6,7,7,0,0,0,2.5,1.69,21.42,21.42,0,0,0,3.34,1.07l3.73.95a26.76,26.76,0,0,1,4.46,1.45,14.75,14.75,0,0,1,3.69,2.23,9.27,9.27,0,0,1,3.42,7.49,10.65,10.65,0,0,1-1.78,6.13,11.6,11.6,0,0,1-5.1,4.09A19.89,19.89,0,0,1,320.42,445.37Z"/><path class="cls-5" d="M359.06,445.22a4.16,4.16,0,0,1-3-1.17,4.23,4.23,0,0,1,0-5.92,4.51,4.51,0,0,1,6.06,0,4.28,4.28,0,0,1,0,5.92A4.17,4.17,0,0,1,359.06,445.22Zm-3.18-12.65-.53-27h7.39l-.52,27Z"/><circle class="cls-5" cx="206.18" cy="221.39" r="21.65"/><circle class="cls-5" cx="239.48" cy="287.35" r="32.09"/><circle class="cls-5" cx="329.34" cy="243.04" r="21.65"/><circle cx="281.43" cy="199.51" r="9.86"/></svg>