<svg id="Calque_1" data-name="Calque 1" xmlns="http://www.w3.org/2000/svg" viewBox="0 0 500 500"><defs><style>.cls-1,.cls-2{fill:none;}.cls-1,.cls-2,.cls-3,.cls-4{stroke:#191918;stroke-miterlimit:10;}.cls-1,.cls-3{stroke-width:2px;}.cls-3,.cls-4{fill:#fff;}.cls-5{fill:#1c1c1c;}.cls-6{fill:#1d1d1b;}.cls-7{fill:#f9f9f7;}.cls-8{fill:#f4f4f2;}</style></defs><path class="cls-1" d="M183.38,218.46c28.28,14.6,65.67,6.72,91.67-12.16,8.06-5.85,15.7-13.5,17.47-23.3s-5-21.46-15-21.49c-9.06,0-15.94,9.84-15,18.85s7.78,16.5,15.7,20.89c27.36,15.19,64-3.27,77.83-31.33s10.3-61.49,2.7-91.84"/><path class="cls-1" d="M332.13,12.32a217.51,217.51,0,0,1,21.61,43.3"/><path class="cls-2" d="M368.27,40.11l-4.95,15.66"/><path class="cls-2" d="M387.07,58.07l-23.86,5.49"/><path class="cls-2" d="M363.3,72a70.06,70.06,0,0,0,20.17,11.26"/><path class="cls-3" d="M406.12,325.23a92.9,92.9,0,0,1-162.06,62,57.7,57.7,0,0,0,2.61-6.53c-2.11.76-4.24,1.43-6.41,2a93.77,93.77,0,0,1-45.12,1,92.87,92.87,0,1,1-52-148.79,92.9,92.9,0,0,1,145.38.66,93,93,0,0,1,117.58,89.56Z"/><path class="cls-4" d="M246.67,380.73a57.7,57.7,0,0,1-2.61,6.53c-1.31-1.45-2.56-3-3.8-4.5C242.43,382.16,244.56,381.49,246.67,380.73Z"/><path class="cls-4" d="M246.67,380.73a57.7,57.7,0,0,1-2.61,6.53c-1.31-1.45-2.56-3-3.8-4.5C242.43,382.16,244.56,381.49,246.67,380.73Z"/><rect class="cls-3" x="71.92" y="318.25" width="274.25" height="54.24" rx="22.52"/><circle class="cls-5" cx="154.71" cy="345.37" r="12.8"/><circle class="cls-5" cx="204" cy="345.37" r="12.8"/><circle class="cls-5" cx="253.29" cy="345.37" r="12.8"/><rect class="cls-3" x="71.92" y="372.49" width="274.25" height="54.24" rx="22.52"/><circle class="cls-5" cx="154.71" cy="399.6" r="12.8"/><circle class="cls-5" cx="204" cy="399.6" r="12.8"/><circle class="cls-5" cx="253.29" cy="399.6" r="12.8"/><rect class="cls-3" x="71.92" y="426.72" width="274.25" height="54.24" rx="22.52"/><circle class="cls-5" cx="154.71" cy="453.84" r="12.8"/><circle class="cls-5" cx="204" cy="453.84" r="12.8"/><circle class="cls-5" cx="253.29" cy="453.84" r="12.8"/><path class="cls-6" d="M360.53,308.49l-98.08,169.9a6.19,6.19,0,0,0,5.36,9.29H464a6.2,6.2,0,0,0,5.37-9.29l-98.09-169.9A6.2,6.2,0,0,0,360.53,308.49Z"/><path class="cls-7" d="M379.34,366.18l-10.65,70.28a2.82,2.82,0,0,1-5.57,0l-10.66-70.28a2.81,2.81,0,0,1,2.79-3.24h21.31A2.81,2.81,0,0,1,379.34,366.18Z"/><circle class="cls-8" cx="365.9" cy="453.76" r="8.1"/></svg>