<svg id="Calque_1" data-name="Calque 1" xmlns="http://www.w3.org/2000/svg" viewBox="0 0 500 500"><defs><style>.cls-1{fill:#c9c9c7;}.cls-1,.cls-11,.cls-2,.cls-3,.cls-4,.cls-5,.cls-7,.cls-8,.cls-9{stroke:#1d1d1b;stroke-miterlimit:10;}.cls-2{fill:#b7b7b7;}.cls-3{fill:#8e8e8d;}.cls-4{fill:#dbdbdb;}.cls-5{fill:#eaeaea;}.cls-10,.cls-11,.cls-6{fill:#1d1d1b;}.cls-7,.cls-8,.cls-9{fill:none;}.cls-7{stroke-width:5px;}.cls-9{stroke-width:4px;}.cls-10,.cls-9{opacity:0.6;}.cls-12{fill:#fff;}</style></defs><rect class="cls-1" x="67.97" y="209.23" width="281.07" height="234.38"/><rect class="cls-2" x="348.58" y="209.23" width="110.27" height="234.38"/><polygon class="cls-3" points="348.58 207.19 458.85 207.19 488.09 150.38 378.93 150.38 348.58 207.19"/><polygon class="cls-4" points="65.38 206.82 11.91 155.58 129.7 155.58 176.48 206.82 65.38 206.82"/><polygon class="cls-5" points="64.45 209.23 22.3 275.69 305.04 275.69 348.49 209.23 64.45 209.23"/><path class="cls-6" d="M256.31,74.65a61.35,61.35,0,0,1,26.35-13.14c9.52-2.13,20.06-2.25,29.2,1.52,8.46,3.48,15.54,11,16.47,20.4,0,.34,0,.69.07,1s.14-4.78,0-2.95c-.05.6-.1,1.19-.19,1.79a16.83,16.83,0,0,1-.89,3.27A16.2,16.2,0,0,1,324,91.86a12.35,12.35,0,0,1-11.41,4c-4.42-.84-8.16-3.88-10.95-7.28a31.1,31.1,0,0,1-6.47-13.21c-.12-.56-.21-1.12-.28-1.69s-.06-.94-.13-1.4c0,0-.19,5,0,2.37a15.65,15.65,0,0,1,.7-3.45,15.38,15.38,0,0,1,2.69-4.93,19.85,19.85,0,0,1,9.14-6.13c8.12-2.73,16.53-.42,23.13,4.77,7.45,5.87,12.4,14.54,15.58,23.35a68.83,68.83,0,0,1,3.61,15.25c.18,1.45.31,2.91.39,4.37,0,.6,0,1.2.07,1.8-.19-2.64,0-1.4,0-.7l-.06,1.46c-.16,3.08-.47,6.13-.76,9.19a140,140,0,0,0-.6,16.38,37.45,37.45,0,0,0,2.6,13.65,24.5,24.5,0,0,0,3.57,5.93,4.16,4.16,0,0,1,0-.73c0-.59,0-1.18,0-1.77s0-1.17,0-1.76c0-.15.07-.63,0-.74a27.73,27.73,0,0,1-5.64-13.45c-.21-1.3-.35-2.61-.43-3.93,0-.34,0-.67-.05-1,0-.89.37-.95,0,.65a14.15,14.15,0,0,0,.11-2.44c.18-3.16.52-6.29.81-9.44,1-11.1.94-22.44-2.14-33.23-2.75-9.64-7.54-19.27-15-26.12-6.5-5.94-15.16-9.25-23.89-6.86a20.41,20.41,0,0,0-10,6c-3,3.39-3.87,7.4-3.9,11.79a36.4,36.4,0,0,0,.55,8.21,29.22,29.22,0,0,0,2.87,7.49,27.05,27.05,0,0,0,9.53,10.65c3.9,2.33,8.66,3,12.77.76A15.68,15.68,0,0,0,328,89.35a33.58,33.58,0,0,0,.46-7.82,23.26,23.26,0,0,0-8.2-18.33c-7.68-6.9-18.7-8.69-28.69-8a60.94,60.94,0,0,0-35.25,14.45c-.25.22,0,2.15,0,2.5s.28,2.28,0,2.5Z"/><path class="cls-7" d="M215.93,137.26a14.14,14.14,0,0,1,11.28-4.42,13.39,13.39,0,0,1,10.25,6.36,12.8,12.8,0,0,1-6.9,18.62c-2.69.91-5.72,1-8.08,2.51-2.73,1.82-3.92,5.33-3.79,8.6s1.37,6.39,2.59,9.43"/><circle class="cls-6" cx="223.25" cy="186.37" r="6.19"/><path class="cls-8" d="M243.71,113.53a3,3,0,0,1,2.35-.93,2.81,2.81,0,0,1,2.14,1.33,2.71,2.71,0,0,1,.21,2.29,2.75,2.75,0,0,1-1.65,1.6,6.7,6.7,0,0,0-1.68.52,2,2,0,0,0-.79,1.8,5.68,5.68,0,0,0,.54,2"/><circle class="cls-6" cx="245.24" cy="123.77" r="1.29"/><path class="cls-9" d="M176.3,128.77a8,8,0,0,1,6.38-2.5,7.58,7.58,0,0,1,5.8,3.6,7.22,7.22,0,0,1-3.9,10.53c-1.52.52-3.24.54-4.57,1.43a5.49,5.49,0,0,0-2.14,4.86,16.22,16.22,0,0,0,1.46,5.33"/><circle class="cls-10" cx="180.45" cy="156.56" r="3.5"/><path class="cls-11" d="M277.5,189h32.8a8.43,8.43,0,0,0,8.43-8.42v-41a8.43,8.43,0,0,0-8.43-8.42H288.56a8.42,8.42,0,0,0-5.45,2L272,142.54a8.44,8.44,0,0,0-3,6.42v31.6A8.43,8.43,0,0,0,277.5,189Z"/><path class="cls-12" d="M285.46,144.92H305.2a1.25,1.25,0,0,0,0-2.5H285.46a1.25,1.25,0,0,0,0,2.5Z"/><path class="cls-12" d="M277.45,155h28a1.25,1.25,0,0,0,0-2.5h-28a1.25,1.25,0,0,0,0,2.5Z"/><path class="cls-12" d="M277.59,168.06h28a1.25,1.25,0,0,0,0-2.5h-28a1.25,1.25,0,0,0,0,2.5Z"/><path class="cls-12" d="M277.73,181.07h28a1.25,1.25,0,0,0,0-2.5h-28a1.25,1.25,0,0,0,0,2.5Z"/></svg>