<svg id="Calque_1" data-name="Calque 1" xmlns="http://www.w3.org/2000/svg" viewBox="0 0 88.81 79.47"><defs><style>.cls-1{fill:none;}.cls-1,.cls-2{stroke:#f9f9f9;stroke-linecap:round;stroke-linejoin:round;stroke-width:1.5px;}.cls-2,.cls-3{fill:#f9f9f9;}.cls-3{stroke:#1d1d1b;stroke-miterlimit:10;}</style></defs><polygon class="cls-1" points="44.4 78.72 0.76 19.93 27.24 19.93 44.4 78.72"/><polygon class="cls-2" points="88.06 19.91 88.04 19.93 0.76 19.93 0.75 19.91 19.73 0.93 69.08 0.93 88.06 19.91"/><polygon class="cls-1" points="88.04 19.93 44.41 78.7 44.41 78.72 44.4 78.72 44.41 78.71 61.57 19.93 88.04 19.93"/><polygon class="cls-1" points="44.4 19.93 44.4 78.72 13.41 19.93 44.4 19.93"/><polygon class="cls-1" points="75.4 19.93 44.41 78.7 44.41 78.72 44.41 78.71 44.4 19.93 75.4 19.93"/><polygon class="cls-2" points="61.57 19.93 44.41 78.71 44.4 78.72 27.24 19.93 61.57 19.93"/><polygon class="cls-3" points="27.24 19.93 44.4 0.75 61.57 19.93 27.24 19.93"/></svg>