<svg id="Calque_1" data-name="Calque 1" xmlns="http://www.w3.org/2000/svg" viewBox="0 0 75.98 68.75"><defs><style>.cls-1{fill:none;}.cls-1,.cls-2{stroke:#f9f9f9;stroke-width:0.3px;}.cls-1,.cls-2,.cls-3,.cls-4{stroke-miterlimit:10;}.cls-2,.cls-3,.cls-4{fill:#f9f9f9;}.cls-3,.cls-4{stroke:#1d1d1b;}.cls-3{stroke-width:0.1px;}.cls-4{stroke-width:0.2px;}</style></defs><polygon class="cls-1" points="37.99 67.49 0.3 16.72 23.16 16.72 37.99 67.49"/><polygon class="cls-2" points="75.69 16.7 75.68 16.72 0.3 16.72 0.29 16.7 16.68 0.31 59.3 0.31 75.69 16.7"/><polygon class="cls-1" points="75.68 16.72 38 67.47 37.99 67.49 37.99 67.49 37.99 67.48 52.81 16.72 75.68 16.72"/><polygon class="cls-1" points="37.99 16.72 37.99 67.49 11.22 16.72 37.99 16.72"/><polygon class="cls-1" points="64.76 16.72 38 67.47 37.99 67.49 37.99 67.48 37.99 16.72 64.76 16.72"/><polygon class="cls-3" points="52.81 16.72 37.99 67.48 37.99 67.49 23.16 16.72 52.81 16.72"/><polygon class="cls-4" points="23.16 16.72 37.99 0.15 52.81 16.72 23.16 16.72"/></svg>