<svg id="Calque_1" data-name="Calque 1" xmlns="http://www.w3.org/2000/svg" viewBox="0 0 500 500"><defs><style>.cls-1,.cls-2{fill:#fff;stroke:#191918;stroke-miterlimit:10;}.cls-2{stroke-width:2px;}.cls-3{fill:#1d1d1b;}.cls-4{fill:#f9f9f7;}.cls-5{fill:#f4f4f2;}.cls-6{fill:#1c1c1c;}</style></defs><path class="cls-1" d="M256,244.26a81.11,81.11,0,0,1-3.64,9.13c-1.84-2-3.59-4.15-5.31-6.29C250.1,246.27,253.07,245.32,256,244.26Z"/><path class="cls-1" d="M256,244.26a81.11,81.11,0,0,1-3.64,9.13c-1.84-2-3.59-4.15-5.31-6.29C250.1,246.27,253.07,245.32,256,244.26Z"/><rect class="cls-2" x="11.8" y="156.94" width="383.28" height="75.8" rx="37.9"/><rect class="cls-2" x="11.8" y="232.74" width="383.28" height="75.8" rx="37.9"/><rect class="cls-2" x="11.8" y="308.54" width="383.28" height="75.8" rx="37.9"/><path class="cls-3" d="M330,124.48,193.33,361.24a10,10,0,0,0,8.67,15H475.39a10,10,0,0,0,8.67-15L347.36,124.48A10,10,0,0,0,330,124.48Z"/><path class="cls-4" d="M357.72,204.28l-15.08,99.48a4,4,0,0,1-7.89,0l-15.08-99.48a4,4,0,0,1,3.94-4.59h30.17A4,4,0,0,1,357.72,204.28Z"/><circle class="cls-5" cx="338.69" cy="328.24" r="11.47"/><rect class="cls-6" x="33.66" y="172.26" width="45.16" height="45.16" rx="22.58"/><rect class="cls-6" x="82.18" y="172.26" width="45.16" height="45.16" rx="22.58"/><rect class="cls-6" x="130.69" y="172.26" width="45.16" height="45.16" rx="22.58"/><rect class="cls-6" x="31.99" y="248.06" width="45.16" height="45.16" rx="22.58"/><rect class="cls-6" x="80.5" y="248.06" width="45.16" height="45.16" rx="22.58"/><rect class="cls-6" x="129.02" y="248.06" width="45.16" height="45.16" rx="22.58"/><rect class="cls-6" x="33.66" y="323.86" width="45.16" height="45.16" rx="22.58"/><rect class="cls-6" x="82.18" y="323.86" width="45.16" height="45.16" rx="22.58"/><rect class="cls-6" x="130.69" y="323.86" width="45.16" height="45.16" rx="22.58"/></svg>