<svg id="Calque_1" data-name="Calque 1" xmlns="http://www.w3.org/2000/svg" viewBox="0 0 474.55 413.36"><defs><style>.cls-1,.cls-4{fill:none;}.cls-1,.cls-2,.cls-4{stroke:#191918;stroke-miterlimit:10;}.cls-1,.cls-2{stroke-width:2px;}.cls-2{fill:#1d1d1b;}.cls-3{fill:#191918;}</style></defs><path class="cls-1" d="M211.84,442.78c38.16,19.7,88.63,9.07,123.71-16.41,10.87-7.89,21.19-18.22,23.57-31.44s-6.76-29-20.19-29c-12.23,0-21.52,13.28-20.26,25.44s10.51,22.27,21.2,28.2c36.91,20.49,86.34-4.41,105-42.28s13.91-83,3.64-123.94" transform="translate(-12.28 -40.63)"/><path class="cls-2" d="M322.55,228.46l-9.11,8.46a9.66,9.66,0,0,1-13.17.08,192.32,192.32,0,0,0-261.93-2.14,9.64,9.64,0,0,1-13.2-.34l-8.93-8.67a9.81,9.81,0,0,1,.33-14.29,224.39,224.39,0,0,1,306,2.57A9.8,9.8,0,0,1,322.55,228.46Z" transform="translate(-12.28 -40.63)"/><path class="cls-2" d="M276,257.09a9.79,9.79,0,0,1,.11,14.44l-12.87,11.94-1.83,1.66a130.88,130.88,0,0,0-178.94-7.06,9.65,9.65,0,0,1-13-.44l-7.81-7.58A9.79,9.79,0,0,1,62,255.66a161.27,161.27,0,0,1,214,1.43Z" transform="translate(-12.28 -40.63)"/><path class="cls-2" d="M232.66,311.83l-4,3.71a9.6,9.6,0,0,1-12.5.36c-1.09-.86-2.21-1.69-3.36-2.5a77.74,77.74,0,0,0-92.2,2.2,9.72,9.72,0,0,1-12.76-.64l-3.77-3.67a9.74,9.74,0,0,1,.63-14.59,102.58,102.58,0,0,1,127.6.5A9.71,9.71,0,0,1,232.66,311.83Z" transform="translate(-12.28 -40.63)"/><path class="cls-3" d="M137.7,350.27l16.73,16.16L181,392.07l6.1,5.89a10.4,10.4,0,0,0,7.07,2.93,10.18,10.18,0,0,0,7.07-2.93c3.61-3.93,4-10.26,0-14.14l-16.73-16.16L157.94,342l-6.1-5.89a10.38,10.38,0,0,0-7.07-2.93,10.18,10.18,0,0,0-7.07,2.93c-3.61,3.93-4,10.26,0,14.14Z" transform="translate(-12.28 -40.63)"/><path class="cls-3" d="M152.69,398.81l16.15-16.73,25.65-26.55,5.89-6.1a10.4,10.4,0,0,0,2.93-7.07,10.19,10.19,0,0,0-2.93-7.08c-3.94-3.61-10.26-4-14.14,0L170.08,352l-25.64,26.55-5.9,6.1a10.42,10.42,0,0,0-2.93,7.08,10.18,10.18,0,0,0,2.93,7.07c3.94,3.61,10.26,4,14.15,0Z" transform="translate(-12.28 -40.63)"/><path class="cls-1" d="M412.57,164.6A293.17,293.17,0,0,1,441.74,223" transform="translate(-12.28 -40.63)"/><path class="cls-4" d="M461.34,202.1l-6.68,21.14" transform="translate(-12.28 -40.63)"/><path class="cls-4" d="M486.72,226.34l-32.2,7.4" transform="translate(-12.28 -40.63)"/><path class="cls-4" d="M454.64,245.08a94.82,94.82,0,0,0,27.21,15.2" transform="translate(-12.28 -40.63)"/><path class="cls-1" d="M355.46,79.8H421.3a0,0,0,0,1,0,0v75.59A10.56,10.56,0,0,1,410.74,166H366a10.56,10.56,0,0,1-10.56-10.56V79.8A0,0,0,0,1,355.46,79.8Z" transform="translate(-21.69 170.02) rotate(-30)"/><ellipse class="cls-1" cx="366.45" cy="84.68" rx="33.5" ry="22.04" transform="translate(-13.54 123.06) rotate(-25.14)"/><path class="cls-3" d="M333.2,61.85l18.4,31.88,2.64,4.56a5,5,0,1,0,8.63-5.05l-18.4-31.87-2.64-4.56a5,5,0,1,0-8.63,5Z" transform="translate(-12.28 -40.63)"/><path class="cls-3" d="M356.91,48.16,375.31,80,378,84.6a5,5,0,1,0,8.63-5l-18.4-31.87-2.63-4.57a5,5,0,0,0-8.64,5Z" transform="translate(-12.28 -40.63)"/></svg>