<svg id="Calque_1" data-name="Calque 1" xmlns="http://www.w3.org/2000/svg" viewBox="0 0 500 500"><defs><style>.cls-1{fill:#1d1d1b;}.cls-2{fill:#fff;stroke:#191918;stroke-miterlimit:10;stroke-width:2px;}</style></defs><path class="cls-1" d="M353.31,252v-22.8l69.37-106.86h18.81v31.87H430.25L382.6,227.4v1.08h96.81V252Zm77.59,31.34V245.12l.32-10.38V122.37h27.23v161Z"/><path class="cls-1" d="M21.12,256V233.16L90.5,126.29h18.8v31.87H98.06L50.41,231.32v1.08h96.82V256Zm77.59,31.34V249L99,238.67V126.29h27.23v161Z"/><circle class="cls-2" cx="251.7" cy="203.58" r="87.8"/><path class="cls-1" d="M204.87,349.33a13.7,13.7,0,0,1-7.08-1.85,13.07,13.07,0,0,1-4.95-5.32,19.82,19.82,0,0,1,0-16.55,13.11,13.11,0,0,1,4.95-5.31,14.47,14.47,0,0,1,14.16,0,13.06,13.06,0,0,1,4.93,5.31,19.92,19.92,0,0,1,0,16.55,13,13,0,0,1-4.93,5.32A13.65,13.65,0,0,1,204.87,349.33Zm0-4.82a7.84,7.84,0,0,0,4.35-1.22,8.09,8.09,0,0,0,3-3.59,13.89,13.89,0,0,0,1.08-5.79,14.08,14.08,0,0,0-1.08-5.83,8.09,8.09,0,0,0-3-3.59,7.84,7.84,0,0,0-4.35-1.22,7.93,7.93,0,0,0-4.36,1.22,8.25,8.25,0,0,0-3,3.6,16,16,0,0,0,0,11.61,8.19,8.19,0,0,0,3,3.58A7.85,7.85,0,0,0,204.87,344.51Z"/><path class="cls-1" d="M236.42,349.33a13.7,13.7,0,0,1-7.08-1.85,13.07,13.07,0,0,1-5-5.32,19.82,19.82,0,0,1,0-16.55,13.11,13.11,0,0,1,5-5.31,14.47,14.47,0,0,1,14.16,0,13.06,13.06,0,0,1,4.93,5.31,19.92,19.92,0,0,1,0,16.55,13,13,0,0,1-4.93,5.32A13.65,13.65,0,0,1,236.42,349.33Zm0-4.82a7.84,7.84,0,0,0,4.35-1.22,8.09,8.09,0,0,0,3-3.59,13.89,13.89,0,0,0,1.08-5.79,14.08,14.08,0,0,0-1.08-5.83,8.09,8.09,0,0,0-3-3.59,7.84,7.84,0,0,0-4.35-1.22,7.93,7.93,0,0,0-4.36,1.22,8.25,8.25,0,0,0-3,3.6,16,16,0,0,0,0,11.61,8.19,8.19,0,0,0,3,3.58A7.85,7.85,0,0,0,236.42,344.51Z"/><path class="cls-1" d="M255.09,348.91v-30h11.29a12.06,12.06,0,0,1,5.79,1.27,8.73,8.73,0,0,1,3.58,3.49,11.25,11.25,0,0,1,0,10.23,8.74,8.74,0,0,1-3.63,3.49,12.39,12.39,0,0,1-5.82,1.26h-7.68v-4.46h7.08a6.91,6.91,0,0,0,3.28-.69,4.64,4.64,0,0,0,1.93-1.92,6.54,6.54,0,0,0,0-5.6,4.47,4.47,0,0,0-1.94-1.88,7.12,7.12,0,0,0-3.3-.67h-5.2v25.52Z"/><path class="cls-1" d="M292.17,349.37a15.32,15.32,0,0,1-6.13-1.12A9,9,0,0,1,282,345a9.6,9.6,0,0,1-1.54-5.15h5.28a5,5,0,0,0,1,2.73,5.11,5.11,0,0,0,2.26,1.65,8.71,8.71,0,0,0,3.19.56,8.54,8.54,0,0,0,3.16-.54,4.88,4.88,0,0,0,2.14-1.52,3.63,3.63,0,0,0,.77-2.28,2.87,2.87,0,0,0-.65-1.91,5.18,5.18,0,0,0-1.88-1.31,16.74,16.74,0,0,0-2.93-1l-3.37-.85a13.39,13.39,0,0,1-6.05-2.94,6.74,6.74,0,0,1-2.11-5.16,7.8,7.8,0,0,1,1.42-4.66,9.27,9.27,0,0,1,3.91-3.1,13.74,13.74,0,0,1,5.66-1.11,13.3,13.3,0,0,1,5.66,1.12,9.06,9.06,0,0,1,3.79,3.11,8.34,8.34,0,0,1,1.43,4.62h-5.18a4.26,4.26,0,0,0-1.74-3.17,6.68,6.68,0,0,0-4-1.13,7.45,7.45,0,0,0-2.91.53,4.55,4.55,0,0,0-1.91,1.42,3.35,3.35,0,0,0-.68,2.06,2.8,2.8,0,0,0,.73,2,5.53,5.53,0,0,0,1.91,1.29,16,16,0,0,0,2.56.83l2.87.72a21.27,21.27,0,0,1,3.41,1.11,11.26,11.26,0,0,1,2.83,1.72,7.32,7.32,0,0,1,1.93,2.43,7.5,7.5,0,0,1,.7,3.31,8.2,8.2,0,0,1-1.37,4.7,8.8,8.8,0,0,1-3.91,3.13A15.12,15.12,0,0,1,292.17,349.37Z"/><path class="cls-1" d="M321.8,349.25a3.2,3.2,0,0,1-2.32-.9,3.22,3.22,0,0,1,0-4.53,3.45,3.45,0,0,1,4.65,0,3.27,3.27,0,0,1,0,4.53A3.19,3.19,0,0,1,321.8,349.25Zm-2.44-9.7-.4-20.68h5.66l-.4,20.68Z"/><path class="cls-1" d="M155.83,401v-30h6.79l9.54,15.24c.44.72.9,1.51,1.39,2.39s1,1.86,1.5,2.94,1,2.24,1.54,3.5l-.66.37c-.08-1.08-.16-2.24-.22-3.48s-.13-2.44-.17-3.58-.06-2.1-.06-2.86V370.93h6.27v30h-6.81l-8.65-13.81q-.87-1.41-1.68-2.85c-.55-1-1.12-2-1.72-3.22L160.81,377l.84-.16c.08,1.47.16,2.86.24,4.18s.13,2.52.17,3.58.06,1.92.06,2.58V401Z"/><path class="cls-1" d="M196.87,401.41A11.35,11.35,0,0,1,191,400a9.68,9.68,0,0,1-3.81-4,14.26,14.26,0,0,1,0-12.07,9.77,9.77,0,0,1,3.81-4,12.5,12.5,0,0,1,11.65,0,9.9,9.9,0,0,1,3.81,4,14.26,14.26,0,0,1,0,12.07,9.81,9.81,0,0,1-3.81,4A11.37,11.37,0,0,1,196.87,401.41Zm0-4.75a4.08,4.08,0,0,0,2.65-.87,5.4,5.4,0,0,0,1.65-2.39,11.22,11.22,0,0,0,0-7,5.42,5.42,0,0,0-1.65-2.38,4.08,4.08,0,0,0-2.65-.87,4.13,4.13,0,0,0-2.66.87,5.32,5.32,0,0,0-1.64,2.38,11.22,11.22,0,0,0,0,7,5.29,5.29,0,0,0,1.63,2.39A4.12,4.12,0,0,0,196.87,396.66Z"/><path class="cls-1" d="M223.26,378.72v4.61H209.75v-4.61ZM213,373.25h6v21.13a2.22,2.22,0,0,0,.47,1.56,2.12,2.12,0,0,0,1.58.5,9.35,9.35,0,0,0,1-.08c.43,0,.75-.09,1-.13l.67,4.58a12.77,12.77,0,0,1-1.9.31q-1,.09-1.92.09a7.48,7.48,0,0,1-5.18-1.58A5.91,5.91,0,0,1,213,395Z"/><path class="cls-1" d="M236.69,401v-30h20v5.16H242.86v8.17h12.6v5h-12.6V401Z"/><path class="cls-1" d="M269.81,401.41A11.39,11.39,0,0,1,264,400a9.81,9.81,0,0,1-3.81-4,14.26,14.26,0,0,1,0-12.07,9.9,9.9,0,0,1,3.81-4,12.5,12.5,0,0,1,11.65,0,9.86,9.86,0,0,1,3.82,4,14.26,14.26,0,0,1,0,12.07,9.77,9.77,0,0,1-3.82,4A11.3,11.3,0,0,1,269.81,401.41Zm0-4.75a4.08,4.08,0,0,0,2.65-.87,5.3,5.3,0,0,0,1.64-2.39,11,11,0,0,0,0-7,5.32,5.32,0,0,0-1.64-2.38,4.49,4.49,0,0,0-5.31,0,5.26,5.26,0,0,0-1.65,2.38,11.41,11.41,0,0,0,0,7,5.3,5.3,0,0,0,1.64,2.39A4.12,4.12,0,0,0,269.81,396.66Z"/><path class="cls-1" d="M292.47,401.29a7.9,7.9,0,0,1-4.05-1,6.78,6.78,0,0,1-2.68-2.92,10,10,0,0,1-.95-4.54V378.72h6v13a4.68,4.68,0,0,0,1.07,3.28,3.85,3.85,0,0,0,3,1.17,4.62,4.62,0,0,0,2.25-.54,3.82,3.82,0,0,0,1.53-1.6,5.51,5.51,0,0,0,.55-2.57V378.72h6V401h-5.75l-.08-5.6h.51a9.48,9.48,0,0,1-2.75,4.37A7,7,0,0,1,292.47,401.29Z"/><path class="cls-1" d="M316.16,388.19V401h-6V378.72h5.72l.08,5.6h-.5a9.38,9.38,0,0,1,2.73-4.37,7,7,0,0,1,4.69-1.56,7.93,7.93,0,0,1,4.05,1,6.73,6.73,0,0,1,2.68,2.9,10.16,10.16,0,0,1,.95,4.56V401h-6v-13a4.72,4.72,0,0,0-1.07-3.3,3.83,3.83,0,0,0-3-1.18,4.47,4.47,0,0,0-2.25.56,3.88,3.88,0,0,0-1.53,1.6A5.47,5.47,0,0,0,316.16,388.19Z"/><path class="cls-1" d="M343.75,401.35A8.43,8.43,0,0,1,339,400a9.1,9.1,0,0,1-3.28-3.91,14.57,14.57,0,0,1-1.2-6.23,14.41,14.41,0,0,1,1.23-6.28,9.12,9.12,0,0,1,3.31-3.87,8.4,8.4,0,0,1,4.61-1.32,7.18,7.18,0,0,1,3.05.59,6.37,6.37,0,0,1,2.06,1.48,7.74,7.74,0,0,1,1.28,1.86h.17V370.93h6v30h-5.92v-3.53h-.23a7.18,7.18,0,0,1-1.3,1.87,6.46,6.46,0,0,1-2.07,1.47A7.17,7.17,0,0,1,343.75,401.35Zm1.78-4.83a4.21,4.21,0,0,0,2.64-.84,5.31,5.31,0,0,0,1.67-2.33,9.55,9.55,0,0,0,.59-3.51,9.45,9.45,0,0,0-.58-3.49,5,5,0,0,0-1.67-2.3,4.29,4.29,0,0,0-2.65-.82,4.18,4.18,0,0,0-2.61.83,5,5,0,0,0-1.64,2.32,10.13,10.13,0,0,0-.55,3.46,10.33,10.33,0,0,0,.55,3.5,5.14,5.14,0,0,0,1.64,2.34A4.12,4.12,0,0,0,345.53,396.52Z"/><circle class="cls-1" cx="201.56" cy="177.61" r="16.6"/><circle class="cls-1" cx="227.1" cy="228.19" r="24.61"/><circle class="cls-1" cx="296" cy="194.21" r="16.6"/><circle cx="259.26" cy="160.83" r="7.56"/></svg>